<svg width="10" height="17" viewBox="0 0 10 17" version="1.1" xmlns="http://www.w3.org/2000/svg" xmlns:xlink="http://www.w3.org/1999/xlink">
<title>tumblr</title>
<desc>Created using Figma</desc>
<g id="Canvas" transform="translate(345 187)">
<g id="tumblr">
<g id="Vector">
<use xlink:href="#path0_fill" transform="translate(-345 -187)" fill="#ffffff"/>
</g>
</g>
</g>
<defs>
<path id="path0_fill" d="M 5.4307 6.34761L 5.4307 12.2309C 5.4307 12.7394 5.45986 13.113 5.51861 13.3517C 5.6361 13.8361 5.90402 13.9951 6.20768 14.2454C 6.77581 14.7148 8.57774 15.149 9.8265 14.1162L 10 16.0962C 9.48177 16.7112 6.59538 17.1718 5.23647 16.9381C 4.32207 16.7787 3.50865 16.6745 2.84107 16.1488C 2.20576 15.6483 1.83301 14.8723 1.724 13.8197C 1.6906 13.5327 1.67448 12.9407 1.67448 12.0447L 1.67448 6.34772L -1.06547e-15 6.37185L -1.06547e-15 4.69382C 1.17544 4.57119 3.27525 3.10089 3.68983 -1.94144e-08L 5.4307 -1.94144e-08L 5.47486 4.39336L 9.26718 4.4175L 9.22419 6.37219L 5.4307 6.34768L 5.4307 6.34761Z"/>
</defs>
</svg>
